<svg width="800" height="600" xmlns="http://www.w3.org/2000/svg">

 <g>
  <title>Layer 1</title>
  <g id="svg_19">
   <ellipse transform="rotate(94.3054 303.309 254.974)" stroke="#ffa100" ry="17.39167" rx="14.79779" id="svg_9" cy="254.97402" cx="303.3094" fill="none"/>
   <path transform="rotate(-91.8192 208.847 303.248)" stroke="#000" id="svg_10" d="m215.95065,264.04774c3.52982,1.28648 6.42507,2.48447 0.94183,2.51953c-4.84248,-0.64626 -17.36954,4.10399 -7.32962,6.43885c6.28111,2.43523 20.57552,-3.18959 20.65172,6.43175c-1.13626,6.02964 -19.57484,1.32174 -13.50914,9.40829c6.68025,2.71235 19.92663,-3.6783 22.16757,4.71478c-2.05424,8.13809 -14.90295,2.94439 -21.36105,5.19349c-6.26061,-1.2823 -7.90934,6.89251 -0.88291,5.65862c16.24318,0.87018 32.59966,-0.40691 48.78688,1.3689c2.61478,1.43819 4.54763,10.28514 1.24788,10.8809c-23.57979,0.48517 -47.20125,0.03923 -70.74371,1.48639c-8.45803,0.08723 -1.99563,9.05542 4.25437,6.94927c5.95349,1.93587 8.31287,7.01187 12.68234,12.02402c2.23286,10.95561 -8.49851,6.88938 -12.88113,3.68351c-4.89383,-3.18583 -13.3114,-9.79871 -17.77684,-13.27022c-3.91441,-2.81063 -12.93292,-5.92948 -18.41897,-9.69709c-4.68928,-1.65479 -9.82076,-0.83094 -14.4265,-1.12809c0,-14.84363 0,-29.68704 0,-44.53066c13.03039,-5.634 26.74197,-10.58291 41.1879,-10.01678c8.46234,0.03422 17.16774,-0.28005 25.40937,1.88454l0,0zm-53.6858,-4.7609c-6.65182,2.5379 -13.29158,5.10813 -19.88313,7.79711c0.31544,18.53653 0.63088,37.07327 0.9463,55.6098c5.26275,0.19846 13.07181,-2.3937 16.82297,1.42316c10.0852,3.21421 16.63304,10.32333 25.47415,15.65912c6.22177,4.8546 11.19142,6.51147 17.61767,10.19311c4.88102,2.24137 7.52386,1.09679 13.02018,0.11957c2.39719,-3.89532 5.37313,-5.90861 3.82889,-13.32928c-3.22228,-1.60951 -7.40393,-12.42718 -1.07162,-12.51315c17.6292,-1.67753 35.54225,0.68028 53.03277,-2.25159c4.35528,-5.85498 5.18588,-19.00876 -2.78533,-22.72171c-7.62829,-2.19003 -15.67122,-1.10367 -23.50857,-1.36702c-0.00048,-5.53905 0.92176,-12.60768 -5.26967,-15.39014c-4.57171,-5.92093 -4.8932,-14.61909 -12.2599,-18.95159c-6.19561,-6.30405 -15.01522,-8.25141 -23.6179,-8.04357c-14.10628,-0.18989 -28.95441,-1.5327 -42.34681,3.76575l0,0.00042l0,-0.00001z" fill="#040505"/>
   <ellipse transform="rotate(94.3054 213.309 172.974)" stroke="#ffa100" ry="17.39167" rx="14.79779" id="svg_11" cy="172.97402" cx="213.3094" fill="none"/>
   <ellipse transform="rotate(94.3054 214.309 212.974)" stroke="#ffa100" ry="17.39167" rx="14.79779" id="svg_12" cy="212.97402" cx="214.3094" fill="none"/>
   <ellipse transform="rotate(94.3054 257.309 211.974)" stroke="#ffa100" ry="17.39167" rx="14.79779" id="svg_13" cy="211.97402" cx="257.3094" fill="none"/>
   <ellipse transform="rotate(94.3054 257.309 173.974)" stroke="#ffa100" ry="17.39167" rx="14.79779" id="svg_14" cy="173.97402" cx="257.3094" fill="none"/>
   <ellipse transform="rotate(94.3054 303.309 174.974)" stroke="#ffa100" ry="17.39167" rx="14.79779" id="svg_15" cy="174.97402" cx="303.3094" fill="none"/>
   <ellipse transform="rotate(94.3054 303.309 213.974)" stroke="#ffa100" ry="17.39167" rx="14.79779" id="svg_16" cy="213.97402" cx="303.3094" fill="none"/>
   <ellipse transform="rotate(94.3054 257.309 254.974)" stroke="#ffa100" ry="17.39167" rx="14.79779" id="svg_17" cy="254.97402" cx="257.3094" fill="none"/>
  </g>
 </g>
</svg>